<?xml version="1.0" encoding="UTF-8" ?>
<!DOCTYPE svg PUBLIC "-//W3C//DTD SVG 1.1//EN" "http://www.w3.org/Graphics/SVG/1.1/DTD/svg11.dtd">
<svg width="1500pt" height="330pt" viewBox="0 0 1500 330" version="1.1" xmlns="http://www.w3.org/2000/svg">
<g id="#ffffffff">
</g>
<g id="#000000ff">
<path fill="#000000" opacity="1.00" d=" M 666.40 6.39 C 675.54 5.33 684.83 6.68 693.98 5.52 C 731.31 5.49 768.64 5.49 805.97 5.52 C 815.14 6.68 824.45 5.33 833.61 6.39 C 839.98 6.78 846.38 6.08 852.73 6.87 C 857.68 7.36 862.70 6.48 867.61 7.40 C 872.26 7.70 876.95 7.19 881.59 7.81 C 885.57 8.34 889.66 7.55 893.62 8.40 C 909.90 8.74 926.14 9.97 942.41 10.62 C 950.78 11.43 959.24 11.48 967.61 12.38 C 976.95 12.84 986.28 13.53 995.59 14.36 C 999.93 14.61 1004.27 14.87 1008.59 15.35 C 1012.59 15.63 1016.60 15.87 1020.59 16.36 C 1029.55 16.89 1038.45 18.04 1047.41 18.64 C 1049.44 18.97 1051.52 19.04 1053.58 19.35 C 1056.92 19.63 1060.27 19.89 1063.59 20.37 C 1064.85 20.46 1066.11 20.54 1067.40 20.63 C 1072.45 21.27 1077.53 21.66 1082.58 22.35 C 1088.59 22.96 1094.60 23.62 1100.60 24.35 C 1111.27 25.59 1121.95 26.84 1132.59 28.35 C 1161.97 32.16 1191.30 36.56 1220.45 41.86 C 1220.98 41.93 1222.04 42.07 1222.57 42.14 C 1267.48 50.42 1312.21 60.13 1355.88 73.61 C 1377.29 80.33 1398.52 87.80 1418.91 97.21 C 1438.90 106.68 1458.88 117.53 1474.14 133.87 C 1480.34 140.64 1485.27 148.85 1487.16 157.91 C 1488.06 165.40 1487.80 173.30 1484.39 180.19 C 1480.15 190.25 1472.26 198.07 1464.16 205.11 C 1449.82 216.89 1433.32 225.66 1416.54 233.39 C 1375.38 251.70 1331.77 263.73 1288.01 273.99 C 1273.53 277.28 1259.01 280.35 1244.44 283.17 C 1198.14 292.24 1151.43 299.14 1104.58 304.64 C 1102.85 304.92 1101.12 305.08 1099.42 305.36 C 1096.40 305.62 1093.40 305.92 1090.42 306.35 C 1083.13 307.07 1075.86 307.98 1068.58 308.65 C 1065.25 309.09 1061.90 309.38 1058.56 309.65 C 1056.52 309.96 1054.45 310.03 1052.42 310.36 C 1047.46 310.61 1042.54 311.38 1037.59 311.65 C 1033.93 312.11 1030.25 312.36 1026.59 312.66 C 1024.54 313.04 1022.44 313.01 1020.39 313.02 L 1019.62 313.50 C 1017.92 313.50 1016.25 313.52 1014.59 313.60 C 1012.21 314.05 1009.77 313.96 1007.40 314.36 C 1003.05 314.61 998.70 314.86 994.39 315.36 C 985.06 315.99 975.71 316.60 966.39 317.37 C 958.79 317.62 951.22 318.48 943.62 318.61 C 937.65 319.21 931.62 319.46 925.62 319.60 C 921.92 320.46 918.08 319.54 914.39 320.40 C 903.45 320.58 892.56 321.52 881.61 321.60 C 876.59 322.63 871.40 321.36 866.38 322.39 C 861.95 322.66 857.51 322.32 853.09 322.59 C 846.61 323.43 840.06 322.71 833.56 323.13 C 825.62 324.04 817.58 323.13 809.61 323.61 C 808.43 323.85 807.25 323.99 806.07 324.00 C 768.70 324.00 731.34 324.00 693.97 324.00 C 692.76 323.99 691.56 323.85 690.39 323.60 C 682.85 323.26 675.29 323.78 667.76 323.34 C 661.13 322.48 654.41 323.51 647.78 322.67 C 643.07 322.25 638.33 322.69 633.61 322.39 C 628.59 321.36 623.40 322.63 618.39 321.60 C 607.44 321.53 596.55 320.58 585.61 320.40 C 581.91 319.54 578.07 320.46 574.39 319.60 C 568.38 319.46 562.36 319.21 556.39 318.61 C 539.44 317.92 522.53 316.43 505.59 315.36 C 501.27 314.86 496.93 314.61 492.59 314.36 C 490.21 313.97 487.78 314.03 485.40 313.63 C 483.80 313.53 482.20 313.46 480.61 313.36 C 478.21 313.00 475.79 313.01 473.41 312.65 C 469.73 312.37 466.06 312.11 462.41 311.65 C 458.74 311.38 455.06 311.10 451.41 310.65 C 448.08 310.37 444.74 310.09 441.43 309.65 C 438.09 309.38 434.75 309.09 431.43 308.65 C 427.13 308.37 422.88 307.71 418.59 307.35 C 415.60 306.92 412.59 306.63 409.59 306.35 C 406.59 305.92 403.59 305.62 400.58 305.36 C 398.86 305.08 397.12 304.92 395.41 304.64 C 348.56 299.11 301.83 292.29 255.56 283.12 C 255.03 283.06 253.98 282.94 253.45 282.88 C 200.55 272.09 147.71 259.55 97.49 239.40 C 85.92 234.62 74.46 229.52 63.52 223.43 C 50.52 216.31 37.87 208.12 27.59 197.34 C 20.29 190.19 14.66 181.00 12.71 170.89 C 12.17 164.28 12.11 157.39 14.81 151.18 C 18.86 140.73 26.59 132.28 35.02 125.13 C 46.88 114.98 60.61 107.34 74.49 100.33 C 97.12 89.35 120.88 80.85 144.87 73.39 C 184.73 61.08 225.50 52.05 266.43 44.13 C 266.96 44.06 268.01 43.93 268.54 43.86 C 271.49 43.21 274.49 42.79 277.44 42.14 C 277.97 42.07 279.03 41.93 279.56 41.86 C 284.48 40.76 289.50 40.23 294.43 39.16 C 318.71 35.23 343.02 31.42 367.43 28.35 C 378.06 26.84 388.74 25.59 399.41 24.35 C 411.74 22.97 424.06 21.45 436.41 20.35 C 439.73 19.91 443.07 19.62 446.42 19.35 C 452.12 18.59 457.88 18.36 463.59 17.65 C 468.87 17.33 474.12 16.59 479.41 16.36 C 483.39 15.87 487.40 15.62 491.41 15.35 C 495.72 14.86 500.06 14.62 504.40 14.36 C 513.71 13.53 523.05 12.84 532.39 12.38 C 549.70 11.09 567.03 10.02 584.38 9.40 C 600.35 8.41 616.37 7.72 632.39 7.40 C 637.25 6.49 642.24 7.35 647.15 6.89 C 653.53 6.07 659.98 6.78 666.40 6.39 M 123.21 118.07 C 122.74 124.46 123.07 130.89 123.07 137.30 C 131.56 138.15 140.13 137.45 148.65 137.68 C 148.64 152.94 148.65 168.20 148.64 183.46 C 140.24 183.48 131.84 183.42 123.44 183.50 C 122.37 190.90 123.09 198.45 123.00 205.91 C 176.02 206.25 229.06 205.96 282.08 206.06 C 291.36 205.56 301.19 202.61 307.74 195.70 C 314.23 188.70 314.03 176.63 307.15 169.97 C 302.66 165.40 296.29 163.84 290.50 161.62 C 297.13 157.81 304.15 153.97 308.64 147.57 C 311.62 143.40 312.65 137.62 310.20 132.95 C 306.80 126.34 299.91 122.50 293.23 119.89 C 286.46 117.34 279.21 116.14 271.98 116.27 C 223.32 116.28 174.66 116.27 125.99 116.28 C 124.70 116.19 123.18 116.45 123.21 118.07 M 397.61 118.47 C 383.70 140.29 369.90 162.18 355.99 183.99 C 348.35 184.09 340.69 183.80 333.06 184.13 C 332.83 184.34 332.36 184.77 332.13 184.98 C 331.89 191.63 331.91 198.32 332.11 204.97 C 333.27 206.43 335.34 205.89 336.97 206.07 C 359.69 206.02 382.41 206.11 405.13 206.03 C 405.72 199.11 405.71 192.07 405.21 185.16 C 399.66 184.27 393.95 185.02 388.34 184.75 C 391.22 180.41 394.21 176.13 397.11 171.80 C 408.19 171.77 419.27 171.81 430.35 171.78 C 433.32 176.09 436.30 180.39 439.20 184.76 C 432.62 184.94 426.02 184.43 419.47 185.06 C 419.49 191.77 419.10 198.51 419.63 205.19 C 421.06 206.57 423.26 205.88 425.05 206.08 C 455.68 205.86 486.35 206.41 516.96 205.81 C 518.37 202.52 517.21 198.53 517.58 194.99 C 517.22 191.84 518.41 188.22 516.79 185.38 C 510.21 184.97 503.60 185.33 497.01 185.21 C 482.55 162.92 468.14 140.60 453.70 118.30 C 452.84 116.52 450.79 116.20 449.02 116.27 C 433.33 116.28 417.64 116.26 401.96 116.28 C 400.20 116.13 398.45 116.87 397.61 118.47 M 540.48 117.24 C 540.38 124.23 540.01 131.31 540.68 138.26 C 547.46 139.18 554.47 138.37 561.35 138.65 C 561.38 153.63 561.33 168.60 561.37 183.58 C 554.91 183.69 548.44 183.37 542.00 183.72 C 541.62 183.90 540.88 184.25 540.50 184.43 C 540.02 191.59 539.96 198.90 540.60 206.06 C 563.06 206.06 585.52 206.05 607.98 206.07 C 609.28 205.94 610.94 206.33 611.85 205.09 C 612.24 199.40 611.90 193.68 612.04 187.98 C 611.93 186.29 612.48 183.61 609.97 183.71 C 603.16 183.39 596.32 183.67 589.50 183.59 C 589.56 171.71 589.39 159.83 589.59 147.96 C 609.52 166.87 629.35 185.90 649.26 204.85 C 650.43 206.27 652.36 206.03 654.01 206.08 C 675.77 205.99 697.52 206.16 719.28 205.99 C 719.60 204.36 719.81 202.70 719.80 201.03 C 719.77 180.24 719.79 159.44 719.79 138.65 C 726.35 138.48 732.95 138.98 739.50 138.39 C 739.66 138.08 739.98 137.44 740.14 137.13 C 740.26 130.75 740.37 124.34 740.07 117.96 C 740.08 116.31 738.19 116.29 737.04 116.28 C 716.01 116.25 694.98 116.30 673.94 116.25 C 672.51 116.40 670.07 115.74 670.08 117.94 C 669.83 124.72 669.99 131.51 670.03 138.29 C 677.02 139.04 684.07 138.46 691.09 138.64 C 691.06 149.06 691.12 159.49 691.05 169.91 C 672.82 152.84 654.86 135.48 636.75 118.28 C 635.50 117.06 633.89 116.13 632.09 116.28 C 603.07 116.25 574.05 116.31 545.04 116.25 C 543.57 116.48 541.43 115.82 540.48 117.24 M 762.32 118.04 C 762.40 124.81 761.87 131.65 762.61 138.37 C 769.44 139.02 776.35 138.46 783.21 138.64 C 783.23 153.62 783.19 168.60 783.23 183.58 C 776.82 183.68 770.39 183.38 763.99 183.71 C 763.60 183.90 762.80 184.27 762.40 184.46 C 761.65 187.24 762.09 190.17 761.99 193.01 C 762.15 197.37 761.51 201.82 762.61 206.09 C 785.43 206.01 808.24 206.10 831.06 206.05 C 832.39 206.24 834.00 205.69 833.90 204.06 C 834.12 198.01 833.99 191.94 833.97 185.89 C 834.31 184.17 832.38 183.61 831.08 183.62 C 824.52 183.51 817.96 183.61 811.40 183.60 C 811.50 171.73 811.29 159.86 811.51 148.00 C 831.53 166.86 851.30 186.00 871.28 204.91 C 872.72 206.51 875.03 205.94 876.95 206.08 C 898.39 205.96 919.83 206.21 941.26 205.95 C 941.51 204.32 941.68 202.67 941.69 201.02 C 941.67 180.23 941.67 159.44 941.69 138.65 C 947.49 138.61 953.30 138.68 959.11 138.64 C 960.10 138.54 962.31 138.73 962.04 137.08 C 962.19 130.72 962.28 124.33 961.99 117.98 C 962.09 116.33 960.12 116.30 959.00 116.28 C 937.65 116.26 916.30 116.29 894.95 116.26 C 893.86 116.24 891.75 116.27 892.03 117.93 C 891.75 124.71 891.99 131.51 891.93 138.30 C 898.92 139.03 905.97 138.47 912.99 138.65 C 912.95 149.01 913.08 159.38 912.93 169.75 C 895.80 154.00 879.16 137.69 862.25 121.69 C 859.76 119.60 857.64 116.11 854.00 116.28 C 824.62 116.26 795.25 116.29 765.88 116.27 C 764.60 116.36 762.09 116.02 762.32 118.04 M 982.65 116.66 C 982.71 124.05 982.51 131.45 982.77 138.84 C 991.34 138.87 999.92 138.84 1008.49 138.85 C 1008.47 153.90 1008.50 168.94 1008.48 183.99 C 1000.30 184.10 992.12 183.79 983.96 184.13 C 982.16 184.34 982.85 186.81 982.63 188.03 C 982.71 194.02 982.50 200.02 982.80 206.01 C 1043.52 206.13 1104.25 206.02 1164.98 206.06 C 1166.11 205.84 1168.48 206.55 1168.45 204.68 C 1168.48 193.81 1168.73 182.91 1168.30 172.05 C 1154.58 172.09 1140.81 171.65 1127.13 172.26 C 1125.70 175.93 1126.84 180.12 1126.49 183.98 C 1105.56 184.00 1084.63 183.99 1063.69 183.99 C 1063.67 179.78 1063.68 175.57 1063.67 171.36 C 1075.61 171.15 1087.58 171.76 1099.50 171.03 C 1099.55 165.16 1099.56 159.28 1099.49 153.41 C 1087.56 153.20 1075.62 153.38 1063.69 153.31 C 1063.67 148.54 1063.67 143.77 1063.69 139.01 C 1084.34 139.01 1104.99 139.00 1125.65 139.01 C 1125.65 143.40 1125.62 147.79 1125.68 152.18 C 1139.47 152.24 1153.26 152.30 1167.05 152.15 C 1167.22 140.41 1167.36 128.65 1167.00 116.92 C 1164.54 115.70 1161.64 116.47 1159.01 116.27 C 1101.67 116.28 1044.32 116.27 986.98 116.27 C 985.51 116.29 984.07 116.46 982.65 116.66 M 1189.87 116.31 C 1189.40 123.36 1189.38 130.49 1189.88 137.54 C 1198.24 137.59 1206.60 137.52 1214.97 137.58 C 1214.97 152.88 1214.98 168.19 1214.97 183.50 C 1206.82 183.49 1198.68 183.51 1190.54 183.49 C 1189.88 190.98 1189.93 198.60 1190.52 206.10 C 1225.66 205.98 1260.80 206.13 1295.94 206.03 C 1296.00 198.80 1296.11 191.57 1295.88 184.35 C 1287.09 184.27 1278.30 184.34 1269.51 184.32 C 1269.49 179.88 1269.51 175.45 1269.49 171.02 C 1277.30 170.97 1285.12 171.02 1292.94 170.99 C 1298.30 170.75 1304.11 171.12 1308.51 174.57 C 1313.89 178.52 1314.22 185.70 1316.37 191.49 C 1318.39 199.67 1326.32 206.68 1335.00 206.08 C 1349.05 205.95 1363.11 206.25 1377.16 205.93 C 1384.86 204.50 1391.98 199.89 1396.60 193.57 C 1401.21 187.20 1399.87 178.85 1399.49 171.51 C 1394.64 171.54 1389.78 171.34 1384.95 171.68 C 1384.76 175.46 1385.52 180.48 1381.78 182.83 C 1379.36 184.03 1375.29 185.03 1373.79 182.03 C 1372.13 178.09 1371.37 173.70 1368.79 170.18 C 1365.79 165.48 1360.59 163.09 1355.99 160.30 C 1363.12 156.84 1370.89 153.25 1375.37 146.38 C 1378.80 141.22 1377.20 134.15 1373.18 129.79 C 1367.75 123.80 1360.09 120.08 1352.18 118.74 C 1341.90 116.90 1331.43 116.20 1321.00 116.27 C 1277.29 116.31 1233.58 116.22 1189.87 116.31 Z" />
<path fill="#000000" opacity="1.00" d=" M 1443.22 50.37 C 1447.87 48.12 1453.16 48.32 1458.20 48.60 C 1466.93 49.86 1474.50 56.24 1477.85 64.31 C 1480.16 70.07 1480.00 76.60 1478.26 82.49 C 1474.60 93.46 1462.95 101.15 1451.40 99.71 C 1441.97 99.25 1433.59 92.67 1429.91 84.16 C 1428.08 79.83 1427.73 75.10 1428.05 70.46 C 1429.30 61.76 1435.12 53.87 1443.22 50.37 M 1446.49 53.57 C 1439.72 56.10 1434.15 61.99 1432.61 69.12 C 1429.46 80.75 1438.29 93.84 1450.18 95.47 C 1457.27 96.83 1464.88 94.05 1469.65 88.65 C 1475.32 82.81 1477.00 73.62 1473.96 66.10 C 1469.91 55.55 1457.14 49.56 1446.49 53.57 Z" />
<path fill="#000000" opacity="1.00" d=" M 1443.00 59.50 C 1448.83 59.60 1454.76 59.07 1460.50 60.41 C 1467.14 61.95 1467.49 73.68 1460.36 74.77 C 1462.37 76.00 1464.45 77.60 1464.89 80.08 C 1465.12 82.75 1464.77 85.47 1465.51 88.08 C 1463.74 87.69 1461.13 88.84 1460.10 86.95 C 1459.76 84.86 1460.38 82.61 1459.60 80.62 C 1457.93 76.23 1452.21 77.43 1448.50 76.93 C 1448.49 80.62 1448.49 84.31 1448.50 88.00 C 1446.64 88.00 1444.82 88.00 1443.00 88.01 C 1443.00 78.50 1443.00 69.00 1443.00 59.50 M 1448.50 63.45 C 1448.48 66.63 1448.49 69.82 1448.50 73.00 C 1452.46 72.87 1457.33 74.00 1460.10 70.32 C 1459.85 68.44 1460.59 66.06 1458.65 64.88 C 1455.48 63.44 1451.89 63.52 1448.50 63.45 Z" />
<path fill="#000000" opacity="1.00" d=" M 202.59 138.13 C 214.38 138.11 226.18 138.14 237.98 138.11 C 242.18 138.01 246.74 139.19 249.62 142.41 C 251.24 144.31 250.19 147.04 248.78 148.73 C 246.13 151.77 242.08 153.63 238.03 153.48 C 226.21 153.45 214.39 153.47 202.58 153.46 C 202.58 148.35 202.57 143.24 202.59 138.13 Z" />
<path fill="#000000" opacity="1.00" d=" M 1269.52 138.12 C 1280.01 138.11 1290.51 138.14 1301.00 138.11 C 1305.98 138.00 1311.37 138.55 1315.52 141.57 C 1317.76 143.06 1318.19 146.40 1316.35 148.39 C 1312.79 152.40 1307.17 154.00 1301.96 154.08 C 1291.14 154.11 1280.32 154.07 1269.51 154.09 C 1269.51 148.77 1269.49 143.45 1269.52 138.12 Z" />
<path fill="#000000" opacity="1.00" d=" M 401.64 153.24 C 404.60 148.34 407.78 143.58 410.84 138.74 C 413.64 138.63 416.46 138.63 419.27 138.69 C 422.24 143.47 425.04 148.36 427.84 153.24 C 419.11 153.30 410.37 153.29 401.64 153.24 Z" />
<path fill="#000000" opacity="1.00" d=" M 202.58 168.54 C 215.03 168.56 227.47 168.49 239.92 168.56 C 244.26 168.81 250.22 170.96 250.47 176.05 C 249.38 181.06 243.94 183.94 239.12 184.01 C 226.94 184.09 214.76 184.01 202.58 184.05 C 202.58 178.87 202.57 173.71 202.58 168.54 Z" />
</g>
</svg>
