<?xml version="1.0" encoding="UTF-8" ?>
<!DOCTYPE svg PUBLIC "-//W3C//DTD SVG 1.1//EN" "http://www.w3.org/Graphics/SVG/1.1/DTD/svg11.dtd">
<svg width="1536pt" height="492pt" viewBox="0 0 1536 492" version="1.1" xmlns="http://www.w3.org/2000/svg">
<g id="#000000ff">
<path fill="#000000" opacity="1.00" d=" M 46.22 30.32 C 115.43 29.77 184.65 29.80 253.86 30.31 C 251.55 51.47 249.15 72.67 245.59 93.67 C 207.07 94.44 168.54 93.77 130.01 94.02 C 129.99 107.34 129.99 120.66 130.01 133.98 C 167.33 134.05 204.65 133.95 241.98 134.01 C 241.99 154.23 242.25 174.46 241.67 194.68 C 204.46 195.42 167.23 194.78 130.01 195.01 C 129.97 210.00 129.98 224.99 130.02 239.98 C 168.65 240.06 207.28 239.93 245.91 240.03 C 248.43 261.74 250.97 283.45 253.82 305.12 C 245.25 306.00 236.61 305.92 228.00 306.04 C 174.67 305.97 121.33 305.98 68.00 306.04 C 60.82 305.91 53.61 306.05 46.47 305.24 C 45.56 213.61 45.98 121.96 46.22 30.32 Z" />
<path fill="#000000" opacity="1.00" d=" M 267.94 30.01 C 296.99 29.99 326.03 29.97 355.08 30.02 C 359.68 42.63 362.57 55.77 366.33 68.65 C 383.38 127.83 399.39 187.31 416.70 246.42 C 416.62 223.44 413.40 200.58 412.58 177.62 C 412.61 171.73 415.05 166.21 416.49 160.60 C 422.65 138.39 428.83 116.18 435.05 93.99 C 435.01 88.17 440.82 86.38 444.68 83.65 C 473.03 67.18 500.86 49.81 529.00 32.97 C 534.52 29.13 541.66 30.40 547.98 29.91 C 592.98 30.23 637.98 29.65 682.97 30.21 C 722.77 30.78 761.34 53.07 782.05 87.00 C 794.00 104.90 800.78 126.37 800.04 147.99 C 798.97 173.58 803.38 200.25 794.99 225.00 C 787.02 250.99 769.70 273.99 747.12 289.08 C 728.04 302.54 704.59 308.87 681.42 309.57 C 658.43 310.37 634.47 310.39 612.93 301.13 C 569.59 283.79 536.82 239.38 537.96 192.01 C 538.39 172.67 536.40 153.32 537.62 134.01 C 566.77 133.98 595.91 133.97 625.05 134.02 C 628.58 161.36 621.41 189.43 628.62 216.35 C 631.24 225.48 636.99 233.75 644.69 239.33 C 655.02 246.83 668.91 248.12 681.02 245.01 C 697.42 240.90 710.03 224.99 709.80 207.99 C 710.47 186.33 709.73 164.66 710.09 143.00 C 709.91 131.58 711.28 119.17 705.07 108.93 C 697.86 97.35 685.16 88.45 671.04 89.07 C 619.46 88.90 567.87 88.96 516.29 89.11 C 494.60 161.12 472.63 233.04 450.86 305.03 C 420.27 306.98 389.58 305.62 358.96 306.07 C 354.32 306.99 348.50 305.44 348.37 299.72 C 321.77 209.77 294.36 120.03 267.94 30.01 Z" />
<path fill="#000000" opacity="1.00" d=" M 832.02 30.01 C 860.34 29.98 888.66 29.98 916.98 30.01 C 917.04 99.34 916.96 168.67 917.01 237.99 C 950.50 238.21 984.00 237.57 1017.49 238.34 C 1019.94 260.89 1023.20 283.36 1025.23 305.96 C 960.94 305.80 896.65 306.50 832.38 305.57 C 831.51 213.73 832.23 121.87 832.02 30.01 Z" />
<path fill="#000000" opacity="1.00" d=" M 992.65 30.07 C 1022.02 29.94 1051.40 29.95 1080.78 30.06 C 1100.89 102.22 1121.12 174.35 1141.77 246.35 C 1141.91 222.22 1137.55 198.25 1138.35 174.12 C 1143.59 150.55 1151.11 127.50 1157.26 104.14 C 1164.58 79.55 1170.76 54.64 1178.08 30.06 C 1205.13 29.96 1232.19 29.93 1259.25 30.08 C 1231.69 121.86 1203.69 213.51 1175.84 305.20 C 1154.26 306.81 1132.60 305.69 1111.00 306.02 C 1099.88 305.84 1088.72 306.54 1077.65 305.54 C 1075.58 305.62 1074.68 303.63 1074.16 301.97 C 1051.53 225.96 1028.72 149.99 1006.03 73.99 C 1001.93 59.24 995.63 45.15 992.65 30.07 Z" />
<path fill="#000000" opacity="1.00" d=" M 1276.02 30.02 C 1344.97 30.18 1413.93 29.60 1482.87 30.31 C 1480.05 51.33 1478.69 72.64 1474.31 93.41 C 1435.92 94.91 1397.43 93.51 1359.01 94.02 C 1358.97 107.34 1358.97 120.66 1359.01 133.98 C 1396.00 134.05 1432.99 133.95 1469.98 134.01 C 1470.02 154.34 1470.02 174.66 1469.98 194.99 C 1432.99 195.05 1396.00 194.95 1359.01 195.01 C 1358.96 210.00 1358.97 224.99 1359.02 239.98 C 1397.65 240.06 1436.29 239.93 1474.93 240.03 C 1477.16 261.94 1480.12 283.77 1482.84 305.63 C 1414.01 306.28 1345.15 306.18 1276.32 305.68 C 1275.58 213.80 1276.19 121.90 1276.02 30.02 Z" />
<path fill="#000000" opacity="1.00" d=" M 549.27 383.17 C 554.56 381.86 560.10 382.94 565.48 383.22 C 570.65 411.40 576.70 439.41 581.98 467.56 C 577.33 467.74 572.71 467.90 568.08 468.05 C 566.99 461.46 565.75 454.89 564.49 448.33 C 559.49 448.21 554.53 448.06 549.55 448.21 C 548.41 454.80 547.35 461.41 546.06 467.97 C 541.28 467.96 536.55 468.00 531.79 467.99 C 535.84 444.42 541.24 421.12 545.47 397.59 C 546.65 392.79 546.83 387.56 549.27 383.17 M 550.82 438.36 C 554.93 438.70 559.04 438.43 563.16 438.24 C 561.23 426.93 559.63 415.55 557.20 404.33 C 553.86 415.41 552.51 426.95 550.82 438.36 Z" />
<path fill="#000000" opacity="1.00" d=" M 597.02 390.96 C 597.62 388.92 596.13 382.71 600.09 382.59 C 606.04 382.06 612.02 382.71 618.00 382.76 C 624.99 383.01 633.19 383.12 638.32 388.69 C 643.75 393.94 643.99 401.93 644.42 408.99 C 644.10 422.61 644.36 436.24 643.64 449.86 C 642.85 456.74 638.55 463.59 631.75 465.82 C 620.79 469.26 609.06 467.70 597.77 468.05 C 596.34 442.38 597.07 416.65 597.02 390.96 M 613.27 392.97 C 612.70 414.52 613.02 436.09 613.08 457.66 C 618.25 456.62 627.77 457.97 627.93 450.00 C 630.38 433.54 629.43 416.49 627.97 399.98 C 627.92 392.02 618.30 393.98 613.27 392.97 Z" />
<path fill="#000000" opacity="1.00" d=" M 661.02 382.78 C 670.63 382.36 680.32 382.19 689.89 383.19 C 698.97 383.58 707.20 391.18 707.49 400.38 C 708.56 415.22 708.24 430.13 707.80 444.99 C 708.18 453.59 703.74 463.37 694.95 465.94 C 684.09 469.41 672.49 467.71 661.32 467.72 C 660.66 439.41 661.09 411.09 661.02 382.78 M 677.49 392.22 C 675.33 399.26 676.08 406.74 675.82 414.00 C 675.89 428.51 675.80 443.05 676.91 457.53 C 681.30 456.30 687.45 457.76 690.65 453.66 C 693.09 448.88 693.05 443.23 693.14 438.01 C 693.12 426.20 693.51 414.34 692.40 402.57 C 691.76 400.11 691.89 396.33 689.22 394.87 C 685.50 393.41 681.35 393.05 677.49 392.22 Z" />
<path fill="#000000" opacity="1.00" d=" M 725.24 382.42 C 730.14 382.53 735.06 382.41 739.97 382.65 C 740.05 411.14 740.00 439.63 739.99 468.11 C 735.07 467.99 730.21 467.95 725.32 467.76 C 724.79 439.32 724.80 410.86 725.24 382.42 Z" />
<path fill="#000000" opacity="1.00" d=" M 755.03 382.85 C 769.38 382.48 783.77 382.12 798.12 382.87 C 798.40 386.40 798.69 389.94 798.90 393.49 C 794.08 393.78 789.32 394.03 784.54 394.37 C 785.06 418.76 785.48 443.18 784.58 467.56 C 779.38 467.77 774.19 467.96 769.02 468.12 C 768.95 443.44 769.04 418.75 768.99 394.07 C 764.29 394.01 759.66 394.00 754.99 393.95 C 755.00 391.17 755.02 385.62 755.03 382.85 Z" />
<path fill="#000000" opacity="1.00" d=" M 813.02 382.83 C 817.88 382.38 822.76 382.31 827.65 382.22 C 828.39 410.85 827.86 439.48 827.99 468.11 C 823.06 467.99 818.21 467.95 813.32 467.76 C 812.66 439.45 813.09 411.14 813.02 382.83 Z" />
<path fill="#000000" opacity="1.00" d=" M 843.76 382.67 C 848.34 382.50 852.97 382.34 857.52 383.07 C 860.88 402.52 864.30 421.97 868.50 441.26 C 872.79 421.91 875.58 402.27 879.23 382.79 C 883.85 382.57 888.51 382.37 893.15 382.72 C 887.72 411.20 881.64 439.54 876.00 467.97 C 872.26 467.97 864.78 467.97 861.04 467.97 C 855.17 439.56 849.38 411.13 843.76 382.67 Z" />
<path fill="#000000" opacity="1.00" d=" M 908.03 382.75 C 920.01 382.12 932.01 382.60 943.99 383.05 C 943.99 385.50 944.00 390.41 944.00 392.86 C 937.41 392.96 930.87 393.00 924.32 393.25 C 924.09 401.45 924.00 409.65 923.97 417.86 C 929.20 418.02 934.44 418.20 939.70 418.41 C 939.70 421.77 939.85 425.20 939.82 428.58 C 934.54 428.80 929.27 429.00 924.02 429.19 C 923.99 438.63 923.98 448.07 923.97 457.51 C 930.49 457.31 937.13 456.79 943.58 458.22 C 943.81 460.67 944.28 465.56 944.51 468.01 C 932.44 468.04 920.37 468.03 908.32 467.69 C 907.67 439.38 908.08 411.06 908.03 382.75 Z" />
<path fill="#000000" opacity="1.00" d=" M 994.62 389.64 C 1001.16 381.32 1013.47 380.75 1022.95 383.03 C 1031.51 386.58 1033.86 396.24 1034.95 404.48 C 1030.64 405.29 1026.30 406.03 1021.98 406.75 C 1020.71 402.40 1021.34 394.84 1015.63 393.33 C 1008.57 391.07 1003.72 399.52 1006.56 405.39 C 1012.69 417.55 1026.87 422.83 1033.13 434.91 C 1038.25 444.18 1037.69 457.91 1028.70 464.65 C 1018.01 473.51 998.84 469.85 993.38 456.69 C 992.14 452.22 991.17 447.69 990.47 443.12 C 994.92 442.35 999.40 441.58 1003.87 440.86 C 1005.68 446.16 1005.61 453.81 1011.43 456.67 C 1017.34 459.60 1023.43 453.13 1021.61 447.37 C 1021.50 440.73 1015.95 436.54 1011.72 432.30 C 1004.83 425.53 995.22 420.69 991.92 411.04 C 990.52 403.99 989.65 395.55 994.62 389.64 Z" />
<path fill="#000000" opacity="1.00" d=" M 1067.43 382.51 C 1074.88 382.00 1083.44 380.50 1090.14 384.82 C 1096.45 387.99 1098.55 395.70 1099.60 402.11 C 1100.50 415.39 1100.17 428.73 1100.04 442.04 C 1100.02 450.79 1098.18 461.16 1089.98 465.97 C 1079.65 471.45 1066.15 470.58 1057.23 462.81 C 1050.43 454.09 1051.34 442.37 1050.90 432.01 C 1051.21 420.47 1049.70 408.68 1052.39 397.32 C 1054.14 390.16 1059.96 383.68 1067.43 382.51 M 1068.83 393.83 C 1065.00 410.87 1067.39 428.68 1067.19 445.99 C 1067.36 449.83 1067.40 456.81 1072.63 457.44 C 1077.42 458.96 1083.69 456.55 1083.98 451.03 C 1086.31 433.06 1085.52 414.59 1083.29 396.66 C 1080.98 390.92 1073.55 393.81 1068.83 393.83 Z" />
<path fill="#000000" opacity="1.00" d=" M 1117.02 382.85 C 1122.00 382.66 1126.99 382.48 1131.98 382.78 C 1132.05 407.57 1131.92 432.37 1132.03 457.16 C 1139.05 457.58 1146.10 456.94 1153.11 457.64 C 1152.89 460.94 1152.95 464.36 1152.73 467.69 C 1140.82 468.03 1128.91 468.04 1117.01 468.03 C 1116.98 439.63 1116.96 411.24 1117.02 382.85 Z" />
<path fill="#000000" opacity="1.00" d=" M 1167.02 382.85 C 1171.99 382.48 1176.97 382.59 1181.94 382.86 C 1182.29 404.57 1181.50 426.28 1182.19 447.99 C 1182.48 451.66 1183.97 456.02 1187.82 457.29 C 1191.42 458.97 1195.77 456.99 1197.83 453.84 C 1199.51 450.16 1199.50 445.93 1199.85 441.99 C 1200.48 422.14 1199.54 402.27 1200.24 382.42 C 1205.13 382.53 1210.06 382.41 1214.96 382.65 C 1214.84 403.33 1215.47 424.03 1214.72 444.70 C 1214.50 452.23 1212.06 460.09 1206.22 465.17 C 1195.86 471.75 1180.75 471.12 1172.18 461.84 C 1167.73 457.49 1167.63 450.75 1167.19 444.99 C 1166.54 424.28 1167.17 403.56 1167.02 382.85 Z" />
<path fill="#000000" opacity="1.00" d=" M 1229.33 382.37 C 1243.53 382.91 1257.75 382.52 1271.96 382.64 C 1271.97 385.44 1271.99 391.04 1272.01 393.85 C 1267.39 393.97 1262.88 394.08 1258.32 394.29 C 1257.65 418.85 1258.14 443.43 1257.99 468.00 C 1254.25 468.00 1246.76 468.00 1243.02 468.00 C 1242.95 443.35 1243.04 418.71 1242.99 394.07 C 1238.25 394.01 1233.61 393.99 1228.93 393.94 C 1229.02 390.08 1229.15 386.22 1229.33 382.37 Z" />
<path fill="#000000" opacity="1.00" d=" M 1287.03 382.81 C 1291.89 382.39 1296.76 382.31 1301.65 382.23 C 1302.39 410.81 1301.85 439.41 1301.99 468.00 C 1298.24 468.00 1290.76 468.00 1287.01 468.00 C 1286.99 439.60 1286.95 411.20 1287.03 382.81 Z" />
<path fill="#000000" opacity="1.00" d=" M 1335.43 382.50 C 1344.05 381.43 1354.01 380.71 1360.99 387.01 C 1365.38 391.89 1368.09 398.37 1367.81 405.01 C 1368.29 419.85 1368.48 434.75 1367.44 449.57 C 1367.02 454.20 1365.00 458.58 1362.29 462.29 C 1351.83 472.27 1332.59 472.25 1323.48 460.48 C 1317.98 450.58 1319.23 438.86 1318.83 428.00 C 1319.18 417.56 1317.89 406.85 1320.59 396.63 C 1322.55 389.83 1328.01 383.25 1335.43 382.50 M 1340.40 393.35 C 1336.52 394.17 1335.09 398.45 1335.05 401.96 C 1334.83 418.50 1334.43 435.08 1335.51 451.60 C 1335.92 460.05 1350.73 460.19 1351.79 451.89 C 1354.23 433.97 1353.61 415.54 1351.30 397.63 C 1350.91 392.44 1344.06 392.25 1340.40 393.35 Z" />
<path fill="#000000" opacity="1.00" d=" M 1385.04 382.80 C 1388.61 382.77 1392.19 382.81 1395.78 382.90 C 1402.36 398.10 1408.22 413.67 1415.78 428.42 C 1417.53 413.26 1416.97 397.97 1417.05 382.75 C 1421.02 382.63 1424.95 382.71 1428.95 382.83 C 1429.03 411.43 1429.05 440.03 1428.94 468.63 C 1426.57 468.31 1421.85 467.69 1419.49 467.37 C 1411.17 451.69 1406.38 434.40 1398.43 418.54 C 1397.80 435.02 1397.98 451.51 1398.00 468.00 C 1393.60 467.99 1389.33 467.99 1385.00 468.00 C 1385.00 439.60 1384.94 411.20 1385.04 382.80 Z" />
<path fill="#000000" opacity="1.00" d=" M 1447.91 391.94 C 1450.71 385.36 1458.14 381.88 1465.03 382.00 C 1470.90 381.81 1478.15 381.55 1482.16 386.82 C 1486.93 391.42 1487.83 398.29 1488.97 404.48 C 1484.64 405.29 1480.30 406.03 1475.98 406.75 C 1474.73 402.72 1475.32 397.24 1471.71 394.26 C 1468.30 392.50 1464.34 394.29 1460.80 394.71 C 1460.66 399.44 1458.85 404.84 1462.08 408.92 C 1468.99 417.28 1479.06 422.73 1484.96 432.03 C 1488.79 436.78 1490.60 442.91 1490.87 448.94 C 1489.80 456.97 1484.95 465.28 1476.97 467.95 C 1468.47 471.49 1457.75 469.22 1451.54 462.44 C 1446.61 457.28 1446.35 449.74 1445.72 443.05 C 1449.70 442.30 1453.72 441.55 1457.74 440.84 C 1459.81 447.03 1460.34 459.06 1470.01 457.04 C 1473.73 456.73 1475.73 452.45 1475.81 449.10 C 1475.59 438.91 1465.95 432.99 1459.38 426.58 C 1454.38 421.64 1447.82 416.93 1446.49 409.57 C 1445.97 403.79 1444.84 397.23 1447.91 391.94 Z" />
</g>
</svg>
