<?xml version="1.0" encoding="UTF-8" ?>
<!DOCTYPE svg PUBLIC "-//W3C//DTD SVG 1.1//EN" "http://www.w3.org/Graphics/SVG/1.1/DTD/svg11.dtd">
<svg width="863pt" height="286pt" viewBox="0 0 863 286" version="1.1" xmlns="http://www.w3.org/2000/svg">
<g id="#000000ff">
<path fill="#000000" opacity="1.00" d=" M 105.12 0.00 L 754.54 0.00 C 773.11 0.13 791.97 3.59 808.37 12.63 C 836.55 27.59 857.00 56.27 861.56 87.90 C 865.31 112.06 860.18 137.51 847.14 158.21 C 829.79 186.37 798.17 205.25 765.05 206.50 C 542.70 206.50 320.35 206.50 97.99 206.50 C 77.27 205.67 56.95 198.06 40.54 185.42 C 23.55 172.45 10.80 154.03 4.64 133.57 C -2.39 110.43 -0.98 84.83 8.63 62.64 C 19.03 38.44 39.09 18.56 63.41 8.44 C 76.56 2.73 90.90 0.62 105.12 0.00 M 99.42 14.57 C 74.15 17.84 49.77 29.74 32.82 48.95 C 21.26 62.03 13.51 78.63 11.90 96.07 C 9.68 117.33 16.99 139.06 30.52 155.47 C 47.75 176.67 73.93 189.61 100.86 192.76 C 108.54 193.83 116.31 193.43 124.04 193.50 C 328.70 193.50 533.35 193.50 738.01 193.50 C 745.71 193.40 753.44 193.85 761.10 192.87 C 786.30 190.17 810.84 178.91 828.25 160.31 C 840.35 147.38 848.77 130.78 850.85 113.11 C 853.18 95.31 848.80 76.88 839.48 61.62 C 830.89 47.54 818.38 36.04 804.05 27.95 C 787.06 18.34 767.50 13.62 748.03 13.50 C 537.04 13.50 326.05 13.50 115.07 13.50 C 109.84 13.60 104.61 13.90 99.42 14.57 Z" />
<path fill="#000000" opacity="1.00" d=" M 109.37 20.33 C 318.91 20.14 528.45 20.30 738.00 20.25 C 744.96 20.33 751.95 19.95 758.89 20.73 C 778.41 22.56 797.51 29.86 812.84 42.16 C 824.64 51.63 834.25 64.08 839.36 78.40 C 846.22 97.04 845.06 118.46 836.17 136.22 C 828.03 153.06 813.80 166.54 797.29 175.11 C 782.20 183.12 765.07 186.91 748.03 187.00 C 537.02 187.00 326.00 186.99 114.98 187.01 C 94.10 186.98 73.10 181.06 55.82 169.22 C 41.26 159.30 29.40 145.07 23.47 128.40 C 17.11 110.76 17.86 90.68 25.55 73.58 C 33.44 55.73 48.08 41.29 65.25 32.25 C 78.82 25.03 94.03 21.07 109.37 20.33 M 99.20 70.15 C 92.48 72.32 86.60 77.80 85.20 84.89 C 83.47 91.86 86.15 99.74 92.10 103.87 C 99.60 109.62 109.55 109.88 117.69 114.28 C 122.18 116.46 123.18 123.14 119.50 126.50 C 115.21 130.35 108.53 130.62 103.36 128.51 C 98.58 126.52 96.01 121.65 94.51 116.97 C 90.45 118.43 86.34 119.74 82.26 121.13 C 83.77 126.23 86.25 131.16 90.32 134.69 C 98.66 142.08 111.23 143.51 121.49 139.66 C 128.24 137.15 133.76 131.28 135.20 124.14 C 136.74 117.78 135.08 110.34 129.76 106.18 C 121.69 99.65 110.38 99.86 101.84 94.21 C 98.49 92.09 97.31 87.07 99.95 83.94 C 103.27 80.11 109.18 79.81 113.69 81.42 C 117.43 82.71 119.62 86.25 121.27 89.63 C 125.24 87.98 129.24 86.42 133.20 84.76 C 131.57 79.65 128.06 75.25 123.47 72.49 C 116.25 68.17 107.12 67.58 99.20 70.15 M 256.30 69.30 C 248.98 70.76 242.08 74.52 237.11 80.12 C 225.67 92.79 224.82 113.47 234.72 127.28 C 240.34 135.16 249.43 140.34 259.01 141.44 C 272.04 143.21 285.88 137.06 292.89 125.86 C 302.69 110.77 300.19 88.52 286.16 76.86 C 278.08 69.89 266.71 67.25 256.30 69.30 M 581.44 69.69 C 573.86 71.56 566.99 76.03 562.25 82.23 C 551.83 95.76 552.27 116.53 563.38 129.53 C 570.55 138.07 582.02 142.53 593.07 141.62 C 605.06 140.85 616.29 133.39 621.63 122.63 C 629.06 107.95 626.19 88.31 613.63 77.33 C 605.01 69.66 592.57 66.88 581.44 69.69 M 666.46 69.62 C 659.09 71.35 652.32 75.57 647.55 81.45 C 636.51 95.02 636.73 116.51 648.25 129.72 C 653.98 136.40 662.38 140.63 671.12 141.52 C 684.34 143.10 698.20 136.54 705.00 125.02 C 714.22 109.86 711.42 87.96 697.43 76.60 C 688.98 69.50 677.13 67.07 666.46 69.62 M 152.51 70.00 C 152.50 93.41 152.50 116.83 152.51 140.24 C 156.83 140.25 161.16 140.25 165.49 140.24 C 165.52 130.74 165.46 121.24 165.52 111.74 C 176.09 111.76 186.67 111.74 197.25 111.75 C 197.26 121.25 197.24 130.74 197.25 140.24 C 201.67 140.25 206.08 140.25 210.49 140.24 C 210.50 116.83 210.50 93.41 210.49 70.00 C 206.08 70.00 201.66 69.99 197.25 70.01 C 197.25 79.67 197.25 89.33 197.25 98.99 C 186.66 99.00 176.08 99.01 165.50 98.99 C 165.49 89.33 165.51 79.66 165.49 70.00 C 161.16 70.00 156.83 70.00 152.51 70.00 M 316.25 70.01 C 316.24 93.41 316.27 116.82 316.24 140.22 C 320.57 140.26 324.90 140.25 329.24 140.25 C 329.26 131.83 329.24 123.42 329.25 115.01 C 332.07 114.99 334.90 114.99 337.74 115.01 C 343.23 123.44 348.84 131.79 354.32 140.23 C 359.23 140.26 364.15 140.24 369.06 140.25 C 363.29 131.47 357.33 122.82 351.54 114.06 C 357.81 112.34 363.66 108.08 365.90 101.79 C 368.81 93.71 368.04 83.58 361.83 77.21 C 356.66 72.07 349.15 70.05 342.02 70.00 C 333.43 70.00 324.84 70.00 316.25 70.01 M 385.25 70.01 C 385.26 93.42 385.25 116.83 385.25 140.24 C 400.83 140.26 416.41 140.25 431.99 140.24 C 432.00 136.16 432.00 132.08 432.00 128.00 C 420.83 128.00 409.67 128.01 398.50 128.00 C 398.50 122.33 398.49 116.66 398.51 111.00 C 408.75 111.00 419.00 111.01 429.24 110.99 C 429.25 106.75 429.24 102.51 429.25 98.27 C 419.00 98.22 408.75 98.27 398.50 98.24 C 398.49 92.91 398.49 87.58 398.51 82.25 C 409.42 82.25 420.33 82.25 431.24 82.24 C 431.25 78.16 431.25 74.09 431.24 70.01 C 415.91 70.00 400.58 70.00 385.25 70.01 M 443.50 70.00 C 450.22 93.41 456.77 116.87 463.55 140.26 C 469.05 140.23 474.55 140.25 480.05 140.25 C 485.31 123.79 490.01 107.16 494.84 90.58 C 499.72 107.17 504.50 123.79 509.81 140.25 C 515.25 140.24 520.70 140.25 526.16 140.24 C 532.89 116.84 539.47 93.40 546.18 70.00 C 541.17 70.00 536.16 70.00 531.14 70.00 C 526.39 87.22 522.28 104.61 517.75 121.90 C 512.44 104.65 507.45 87.31 502.35 69.99 C 497.33 70.01 492.32 69.98 487.31 70.02 C 482.24 87.31 477.23 104.62 472.04 121.88 C 467.46 104.62 463.32 87.23 458.56 70.01 C 453.53 69.99 448.51 70.00 443.50 70.00 M 727.75 70.01 C 727.75 93.42 727.75 116.83 727.76 140.25 C 737.46 140.19 747.18 140.35 756.89 140.17 C 765.73 139.96 774.75 136.33 780.30 129.25 C 787.18 120.87 788.85 109.42 787.77 98.91 C 786.80 90.00 782.79 80.93 775.20 75.76 C 769.07 71.43 761.40 70.01 754.02 70.00 C 745.27 70.00 736.51 69.99 727.75 70.01 Z" />
<path fill="#000000" opacity="1.00" d=" M 258.43 81.56 C 265.31 79.85 273.08 81.85 278.02 87.00 C 287.50 96.72 287.38 114.21 277.67 123.73 C 270.97 130.26 259.75 131.15 251.99 126.01 C 242.12 119.63 239.48 105.92 243.39 95.35 C 245.74 88.66 251.48 83.20 258.43 81.56 Z" />
<path fill="#000000" opacity="1.00" d=" M 585.45 81.53 C 591.90 79.98 599.08 81.62 603.99 86.14 C 615.00 96.19 614.55 116.46 602.43 125.47 C 594.55 131.35 582.50 130.38 575.60 123.39 C 568.40 116.19 566.82 104.66 570.27 95.31 C 572.69 88.62 578.41 83.05 585.45 81.53 Z" />
<path fill="#000000" opacity="1.00" d=" M 671.29 81.29 C 678.91 79.82 687.17 83.05 691.68 89.39 C 699.38 100.09 698.10 117.16 687.29 125.34 C 678.55 132.13 664.55 129.99 658.17 120.95 C 652.74 113.62 651.88 103.46 655.08 95.04 C 657.66 88.09 663.91 82.52 671.29 81.29 Z" />
<path fill="#000000" opacity="1.00" d=" M 329.25 82.01 C 335.59 82.45 342.45 80.73 348.37 83.71 C 354.55 86.55 355.63 96.10 350.47 100.41 C 344.44 105.11 336.28 102.63 329.26 103.26 C 329.23 96.18 329.25 89.09 329.25 82.01 Z" />
<path fill="#000000" opacity="1.00" d=" M 741.01 82.24 C 749.20 82.54 758.20 80.89 765.55 85.51 C 772.11 89.52 774.37 97.72 774.29 104.99 C 774.44 112.31 772.56 120.79 765.94 124.96 C 758.50 129.75 749.30 127.48 741.00 128.00 C 741.00 112.75 740.99 97.49 741.01 82.24 Z" />
<path fill="#000000" opacity="1.00" d=" M 175.98 249.01 C 184.13 234.32 209.80 234.58 216.60 250.37 C 214.62 251.11 212.63 251.82 210.64 252.52 C 206.38 243.21 193.05 240.85 185.45 247.41 C 177.95 253.46 178.52 267.05 187.23 271.74 C 195.43 276.94 209.29 274.16 211.22 263.53 C 206.56 263.47 201.91 263.52 197.25 263.50 C 197.25 261.91 197.25 260.33 197.25 258.76 C 204.00 258.74 210.75 258.74 217.49 258.75 C 217.51 265.42 217.50 272.08 217.50 278.75 C 215.84 278.75 214.20 278.75 212.55 278.76 C 212.36 276.25 212.24 273.74 212.27 271.23 C 209.13 276.50 203.11 279.58 197.03 279.54 C 190.71 279.91 184.07 278.10 179.45 273.63 C 172.88 267.48 171.68 256.77 175.98 249.01 Z" />
<path fill="#000000" opacity="1.00" d=" M 560.99 242.95 C 571.83 234.89 590.59 237.15 596.36 250.34 C 594.40 251.09 592.43 251.82 590.46 252.54 C 586.23 243.58 573.65 240.93 565.90 246.85 C 558.56 252.09 557.80 264.41 564.84 270.22 C 572.76 277.26 588.75 275.17 590.97 263.55 C 586.31 263.46 581.66 263.51 577.01 263.50 C 577.00 261.92 576.99 260.33 577.00 258.75 C 583.75 258.75 590.50 258.75 597.25 258.75 C 597.26 265.41 597.23 272.07 597.27 278.73 C 595.60 278.74 593.95 278.76 592.29 278.78 C 592.08 276.28 591.98 273.77 592.00 271.26 C 589.62 274.92 586.04 277.84 581.74 278.87 C 573.83 280.65 564.61 279.24 558.78 273.22 C 550.53 265.11 551.53 249.74 560.99 242.95 Z" />
<path fill="#000000" opacity="1.00" d=" M 754.02 251.98 C 759.99 234.61 788.86 233.35 796.00 250.39 C 794.01 251.11 792.03 251.83 790.05 252.53 C 786.12 244.06 774.74 241.20 766.93 245.92 C 758.57 250.44 757.16 263.49 764.07 269.89 C 770.67 275.74 782.21 276.00 788.24 269.18 C 789.81 267.55 790.75 265.45 791.74 263.45 C 793.71 264.05 795.68 264.66 797.66 265.29 C 795.30 271.60 790.15 276.91 783.52 278.63 C 775.09 280.75 765.14 279.54 758.68 273.30 C 753.04 267.94 751.65 259.19 754.02 251.98 Z" />
<path fill="#000000" opacity="1.00" d=" M 70.01 239.25 C 79.67 239.25 89.33 239.25 98.99 239.24 C 98.99 240.91 98.99 242.58 99.00 244.25 C 91.51 244.25 84.01 244.26 76.52 244.24 C 76.49 248.07 76.50 251.90 76.50 255.74 C 83.58 255.76 90.65 255.74 97.73 255.75 C 97.75 257.57 97.76 259.40 97.78 261.23 C 90.69 261.27 83.61 261.26 76.53 261.23 C 76.49 265.32 76.50 269.40 76.51 273.49 C 84.17 273.51 91.84 273.48 99.51 273.51 C 99.50 275.25 99.50 277.00 99.49 278.75 C 89.66 278.75 79.84 278.75 70.01 278.75 C 69.99 265.58 69.99 252.41 70.01 239.25 Z" />
<path fill="#000000" opacity="1.00" d=" M 118.01 239.25 C 120.31 239.24 122.61 239.24 124.91 239.25 C 132.72 249.20 140.61 259.09 148.23 269.19 C 148.26 259.21 148.23 249.23 148.25 239.25 C 150.33 239.25 152.41 239.24 154.50 239.25 C 154.52 252.41 154.49 265.57 154.51 278.73 C 152.30 278.74 150.10 278.76 147.90 278.79 C 140.02 269.03 132.20 259.21 124.48 249.32 C 124.51 259.14 124.53 268.95 124.47 278.77 C 122.31 278.76 120.16 278.75 118.01 278.75 C 118.00 265.58 117.99 252.41 118.01 239.25 Z" />
<path fill="#000000" opacity="1.00" d=" M 237.76 239.25 C 239.92 239.25 242.08 239.25 244.24 239.25 C 244.26 252.42 244.26 265.58 244.24 278.75 C 242.08 278.75 239.92 278.75 237.76 278.75 C 237.74 265.58 237.74 252.42 237.76 239.25 Z" />
<path fill="#000000" opacity="1.00" d=" M 265.49 239.26 C 267.79 239.24 270.10 239.25 272.40 239.30 C 280.07 249.20 287.93 258.96 295.48 268.95 C 295.52 259.05 295.48 249.15 295.50 239.25 C 297.66 239.24 299.83 239.24 301.99 239.24 C 302.00 252.41 302.00 265.58 301.99 278.75 C 299.75 278.75 297.51 278.76 295.28 278.78 C 287.38 268.95 279.49 259.10 271.76 249.13 C 271.74 259.00 271.76 268.87 271.75 278.75 C 269.67 278.75 267.59 278.75 265.51 278.76 C 265.48 265.59 265.51 252.42 265.49 239.26 Z" />
<path fill="#000000" opacity="1.00" d=" M 323.25 239.25 C 332.92 239.24 342.58 239.25 352.25 239.24 C 352.24 240.91 352.23 242.58 352.23 244.26 C 344.71 244.34 337.18 244.06 329.67 244.41 C 329.78 248.19 329.75 251.98 329.78 255.77 C 336.85 255.73 343.92 255.75 351.00 255.75 C 350.99 257.58 350.99 259.41 351.00 261.25 C 343.91 261.26 336.82 261.23 329.73 261.26 C 329.76 265.34 329.75 269.42 329.76 273.50 C 337.42 273.50 345.09 273.49 352.75 273.51 C 352.75 275.25 352.75 277.00 352.75 278.75 C 342.92 278.76 333.08 278.76 323.25 278.75 C 323.24 265.58 323.24 252.42 323.25 239.25 Z" />
<path fill="#000000" opacity="1.00" d=" M 371.25 239.25 C 380.92 239.26 390.59 239.21 400.27 239.28 C 400.25 240.93 400.24 242.59 400.24 244.25 C 392.75 244.25 385.27 244.27 377.78 244.23 C 377.74 248.07 377.74 251.90 377.76 255.74 C 384.84 255.76 391.92 255.74 399.00 255.75 C 398.99 257.58 398.99 259.41 399.00 261.25 C 391.92 261.26 384.84 261.24 377.76 261.25 C 377.75 265.33 377.76 269.40 377.74 273.47 C 385.39 273.52 393.05 273.51 400.70 273.47 C 400.72 275.23 400.74 276.99 400.77 278.75 C 390.93 278.75 381.09 278.76 371.25 278.75 C 371.24 265.58 371.24 252.42 371.25 239.25 Z" />
<path fill="#000000" opacity="1.00" d=" M 419.25 239.25 C 424.85 239.24 430.45 239.25 436.06 239.23 C 440.03 239.14 444.16 240.23 447.25 242.81 C 452.67 247.19 452.29 256.71 446.73 260.82 C 444.87 262.28 442.53 262.83 440.33 263.55 C 444.30 268.53 448.15 273.61 451.95 278.73 C 449.50 278.75 447.05 278.75 444.61 278.74 C 440.78 273.77 437.09 268.70 433.23 263.76 C 430.73 263.75 428.24 263.75 425.76 263.75 C 425.74 268.75 425.76 273.75 425.75 278.75 C 423.58 278.75 421.41 278.75 419.25 278.75 C 419.24 265.58 419.24 252.42 419.25 239.25 M 425.74 244.27 C 425.76 249.09 425.75 253.91 425.75 258.73 C 430.87 258.41 436.49 259.81 441.21 257.21 C 445.13 255.03 445.35 248.81 441.65 246.30 C 436.98 243.15 431.01 244.54 425.74 244.27 Z" />
<path fill="#000000" opacity="1.00" d=" M 470.25 239.24 C 472.34 239.25 474.43 239.26 476.53 239.28 C 476.47 252.43 476.51 265.58 476.50 278.74 C 474.42 278.74 472.33 278.75 470.25 278.76 C 470.24 265.58 470.24 252.41 470.25 239.24 Z" />
<path fill="#000000" opacity="1.00" d=" M 497.74 239.25 C 500.05 239.24 502.36 239.24 504.68 239.25 C 512.44 249.24 520.37 259.11 527.99 269.20 C 528.01 259.22 527.98 249.23 528.01 239.24 C 530.08 239.24 532.16 239.25 534.25 239.25 C 534.25 252.42 534.25 265.58 534.25 278.75 C 532.00 278.75 529.77 278.75 527.53 278.74 C 519.78 268.95 511.91 259.27 504.29 249.38 C 504.21 259.16 504.25 268.95 504.27 278.73 C 502.09 278.74 499.93 278.75 497.77 278.77 C 497.72 265.60 497.77 252.42 497.74 239.25 Z" />
<path fill="#000000" opacity="1.00" d=" M 669.76 239.25 C 671.92 239.25 674.08 239.25 676.25 239.26 C 676.23 252.43 676.28 265.60 676.23 278.77 C 674.06 278.76 671.90 278.75 669.74 278.73 C 669.76 265.57 669.73 252.41 669.76 239.25 Z" />
<path fill="#000000" opacity="1.00" d=" M 697.47 239.27 C 699.77 239.25 702.07 239.25 704.38 239.26 C 712.06 249.17 719.95 258.92 727.48 268.95 C 727.54 259.04 727.44 249.14 727.53 239.23 C 729.68 239.24 731.83 239.24 733.99 239.25 C 734.00 252.42 734.00 265.59 733.99 278.76 C 731.75 278.75 729.51 278.75 727.28 278.75 C 719.43 269.06 711.69 259.29 704.03 249.45 C 703.96 259.22 704.03 268.99 703.99 278.76 C 701.82 278.75 699.66 278.75 697.50 278.75 C 697.48 265.59 697.53 252.43 697.47 239.27 Z" />
<path fill="#000000" opacity="1.00" d=" M 616.58 273.62 C 618.55 270.05 625.44 271.61 624.51 276.07 C 623.09 279.57 620.48 282.40 618.40 285.52 C 617.46 285.51 615.56 285.49 614.61 285.48 C 615.88 283.29 617.17 281.10 618.45 278.91 C 616.71 277.78 615.39 275.62 616.58 273.62 Z" />
<path fill="#000000" opacity="1.00" d=" M 813.45 272.45 C 816.01 270.43 821.01 272.30 820.23 275.99 C 819.73 280.12 812.50 280.14 812.03 275.99 C 811.59 274.55 812.27 273.26 813.45 272.45 Z" />
</g>
</svg>
