<?xml version="1.0" encoding="UTF-8" ?>
<!DOCTYPE svg PUBLIC "-//W3C//DTD SVG 1.1//EN" "http://www.w3.org/Graphics/SVG/1.1/DTD/svg11.dtd">
<svg width="1685pt" height="657pt" viewBox="0 0 1685 657" version="1.1" xmlns="http://www.w3.org/2000/svg">
<g id="#000000ff">
<path fill="#000000" opacity="1.00" d=" M 104.37 18.41 C 105.75 17.53 107.45 17.80 108.99 17.72 C 135.05 17.80 161.11 17.71 187.17 17.76 C 171.12 38.78 166.09 66.04 166.81 91.96 C 168.17 131.82 179.46 170.46 191.75 208.12 C 197.51 225.54 203.50 242.87 209.56 260.18 C 204.37 234.32 200.06 208.28 196.85 182.10 C 194.13 158.84 191.05 135.47 191.96 112.00 C 192.63 90.82 196.65 69.12 207.91 50.85 C 216.27 37.31 228.05 25.71 241.88 17.86 C 273.07 17.61 304.27 17.82 335.46 17.75 C 327.89 24.39 324.29 34.29 322.94 44.03 C 320.50 60.99 323.08 78.09 325.57 94.88 C 330.64 130.89 335.69 166.91 340.79 202.92 C 341.27 205.40 340.10 207.74 339.47 210.07 C 329.63 242.92 331.17 279.09 343.96 310.92 C 348.10 321.59 353.92 331.49 360.14 341.06 C 363.75 360.41 368.56 381.31 383.58 395.25 C 348.69 395.26 313.79 395.23 278.90 395.27 C 285.20 388.03 288.09 378.54 289.35 369.19 C 291.08 355.51 290.27 341.62 288.09 328.04 C 273.59 229.20 259.19 130.34 244.62 31.51 C 230.94 40.55 220.07 53.76 214.17 69.09 C 208.07 84.63 205.76 101.42 205.50 118.03 C 205.17 138.81 207.82 159.47 210.23 180.06 C 213.81 208.86 218.67 237.49 224.18 265.98 C 233.05 308.44 239.94 351.73 237.96 395.25 C 213.74 395.25 189.51 395.25 165.29 395.25 C 164.94 370.28 162.16 345.35 156.89 320.94 C 148.76 282.35 135.60 245.09 123.12 207.76 C 113.67 178.99 104.44 149.96 99.91 119.94 C 95.67 92.31 96.09 63.66 103.95 36.69 C 89.91 45.08 78.00 57.33 71.12 72.27 C 65.63 83.77 62.94 96.42 61.87 109.06 C 60.26 130.13 62.88 151.26 66.91 171.93 C 71.31 194.28 77.58 216.21 84.11 238.01 C 96.15 280.21 106.66 323.28 108.67 367.28 C 108.79 376.60 108.97 385.94 108.19 395.25 C 77.10 395.25 46.02 395.25 14.94 395.25 C 24.66 374.99 28.51 352.34 28.76 330.00 C 29.71 281.37 16.94 233.62 17.99 184.98 C 18.96 145.16 28.16 104.66 49.76 70.78 C 63.41 49.28 82.27 31.08 104.37 18.41 Z" />
<path fill="#000000" opacity="1.00" d=" M 1171.37 29.92 C 1197.84 25.93 1224.29 21.82 1250.75 17.81 C 1250.69 72.88 1250.86 127.96 1250.67 183.02 C 1248.92 188.01 1245.95 192.54 1244.26 197.59 C 1228.37 237.68 1230.36 284.56 1250.00 323.01 C 1251.01 324.82 1250.70 326.96 1250.78 328.96 C 1250.57 342.34 1251.09 355.86 1254.06 368.96 C 1256.24 378.61 1260.33 388.05 1267.25 395.26 C 1240.84 395.24 1214.43 395.25 1188.03 395.26 C 1186.80 385.47 1187.55 375.47 1190.14 365.95 C 1193.63 352.42 1200.00 339.89 1205.41 327.07 C 1207.29 322.02 1210.75 316.67 1208.88 311.11 C 1207.84 307.31 1202.87 305.17 1199.56 307.51 C 1194.87 310.29 1193.88 316.05 1191.78 320.64 C 1184.87 336.98 1177.94 353.70 1166.76 367.65 C 1158.58 377.53 1148.17 385.74 1136.07 390.20 C 1121.92 395.42 1106.41 396.34 1091.55 394.28 C 1074.37 391.82 1058.18 383.27 1046.47 370.47 C 1035.00 358.12 1027.37 342.67 1022.29 326.71 C 1012.49 295.18 1012.27 261.22 1018.92 229.03 C 1022.27 213.02 1027.62 197.45 1034.69 182.71 C 1045.78 158.86 1063.40 137.47 1086.61 124.63 C 1102.43 115.79 1120.83 111.48 1138.93 112.88 C 1151.38 113.87 1163.38 119.05 1172.77 127.26 C 1185.12 137.87 1193.35 152.34 1199.92 167.03 C 1201.52 170.61 1204.59 174.18 1208.83 174.21 C 1212.69 173.75 1215.19 169.75 1214.91 166.05 C 1214.63 161.34 1211.73 157.42 1209.61 153.38 C 1203.36 142.31 1197.05 131.12 1193.31 118.89 C 1189.81 107.96 1188.30 96.48 1188.04 85.03 C 1188.03 72.99 1187.25 60.78 1183.76 49.18 C 1181.50 41.80 1177.70 34.59 1171.37 29.92 M 1135.21 137.22 C 1121.55 139.97 1110.93 150.31 1103.64 161.68 C 1093.69 176.98 1088.45 194.74 1084.54 212.40 C 1078.05 243.38 1076.63 276.08 1085.16 306.81 C 1088.87 319.42 1093.80 332.29 1103.31 341.73 C 1112.00 350.65 1125.08 355.51 1137.46 353.21 C 1148.84 351.04 1158.72 343.85 1165.90 334.97 C 1177.45 320.99 1182.04 302.86 1185.22 285.39 C 1189.10 264.15 1187.78 242.50 1188.00 221.03 C 1187.84 207.43 1188.87 193.63 1185.68 180.27 C 1182.45 165.90 1175.54 151.46 1163.18 142.81 C 1155.18 137.07 1144.79 135.16 1135.21 137.22 Z" />
<path fill="#000000" opacity="1.00" d=" M 784.55 112.51 C 811.01 112.56 837.47 112.35 863.93 112.61 C 865.96 128.48 862.03 144.39 855.91 158.96 C 852.06 168.41 847.61 177.61 843.86 187.11 C 842.48 190.66 841.68 194.88 843.54 198.41 C 844.71 200.98 847.87 202.39 850.56 201.48 C 854.41 200.43 856.98 196.98 858.42 193.44 C 865.43 175.90 872.55 158.10 883.70 142.70 C 893.83 128.69 909.05 118.41 926.01 114.81 C 942.56 111.32 960.61 111.38 976.09 118.90 C 989.14 125.09 999.46 136.11 1006.14 148.80 C 1012.20 160.04 1015.73 172.51 1017.37 185.14 C 1017.56 187.14 1018.09 189.27 1017.16 191.17 C 1005.03 219.35 999.55 250.34 1000.73 280.96 C 1001.81 305.25 1007.30 329.61 1018.82 351.14 C 1020.80 366.70 1023.68 383.51 1035.01 395.28 C 1003.08 395.21 971.15 395.27 939.22 395.25 C 948.46 385.44 952.33 372.01 954.23 358.99 C 956.27 345.43 955.67 331.69 955.75 318.03 C 955.75 287.69 955.75 257.36 955.75 227.03 C 955.68 217.83 956.13 208.59 954.78 199.46 C 953.02 186.68 948.74 173.75 939.99 163.99 C 933.52 156.78 923.81 151.97 913.97 153.12 C 903.78 154.33 895.03 160.87 888.73 168.68 C 879.32 180.37 873.83 194.68 870.10 209.08 C 866.99 221.15 865.03 233.52 864.18 245.96 C 863.48 255.31 863.83 264.68 863.75 274.05 C 863.74 294.00 863.76 313.96 863.74 333.92 C 863.86 349.25 864.87 364.99 870.67 379.36 C 873.07 385.27 876.55 390.71 881.02 395.28 C 826.87 395.23 772.71 395.24 718.56 395.27 C 716.48 380.85 719.66 366.27 724.87 352.85 C 728.95 342.16 734.08 331.91 738.25 321.26 C 739.64 317.75 740.67 313.68 739.08 310.06 C 738.15 307.79 735.78 305.64 733.17 306.33 C 728.28 307.58 725.60 312.36 723.75 316.67 C 714.80 335.08 706.60 354.35 692.81 369.79 C 682.97 381.66 669.10 390.02 653.96 393.03 C 637.11 396.36 619.03 396.62 602.87 390.16 C 586.58 383.81 573.69 370.19 566.84 354.26 C 554.11 367.97 538.62 379.21 521.26 386.29 C 486.59 400.79 445.17 397.60 413.21 377.79 C 377.72 356.38 354.40 317.75 348.56 277.07 C 343.53 242.74 349.88 206.58 367.70 176.67 C 382.84 150.92 406.63 130.04 434.90 119.96 C 460.06 110.38 488.56 110.24 513.89 119.28 C 529.31 124.74 543.81 134.07 553.37 147.56 C 563.33 161.51 567.01 179.72 563.38 196.45 C 560.15 211.68 550.88 225.19 538.75 234.75 C 525.45 245.33 508.83 249.97 493.39 256.40 C 478.74 262.41 463.22 268.39 452.19 280.24 C 442.81 290.25 437.43 305.30 442.47 318.63 C 443.59 323.26 447.55 326.15 450.87 329.19 C 464.64 341.39 480.97 351.22 499.07 355.26 C 512.51 358.39 526.78 357.81 539.93 353.60 C 548.10 351.11 555.71 347.12 562.97 342.68 C 560.30 328.59 560.96 313.71 566.49 300.37 C 572.39 285.02 583.88 272.67 596.43 262.42 C 610.98 250.52 627.21 240.93 643.26 231.23 C 662.15 219.66 681.33 208.46 699.15 195.26 C 712.30 185.58 725.32 174.89 733.63 160.58 C 736.87 154.80 739.74 148.16 738.47 141.40 C 737.38 136.12 732.19 132.70 727.06 132.18 C 717.99 131.24 709.10 134.36 700.89 137.89 C 686.96 144.30 674.13 152.84 661.63 161.67 C 642.89 175.07 625.12 189.83 608.50 205.80 C 597.06 185.13 585.52 164.51 574.04 143.86 C 609.86 122.83 651.56 112.81 692.95 112.74 C 711.90 111.96 731.98 113.47 748.62 123.40 C 761.01 130.67 769.85 142.96 774.32 156.47 C 781.15 176.55 780.51 198.07 780.50 219.00 C 780.50 251.32 780.50 283.65 780.50 315.98 C 780.49 334.11 780.14 352.54 784.69 370.24 C 786.24 375.80 788.05 381.40 791.25 386.25 C 800.21 369.74 802.04 350.46 801.75 331.98 C 801.75 284.31 801.75 236.65 801.75 188.98 C 801.76 170.05 802.40 150.60 796.39 132.39 C 794.03 124.96 789.93 118.15 784.55 112.51 M 434.00 140.08 C 420.74 144.07 409.24 153.27 402.07 165.08 C 393.92 178.07 390.79 193.73 391.82 208.94 C 393.91 243.04 407.71 275.49 426.78 303.49 C 426.45 296.96 427.03 290.33 429.24 284.14 C 434.34 269.41 445.78 258.24 457.04 248.00 C 467.43 238.08 478.45 228.53 486.62 216.60 C 495.84 202.77 499.99 184.94 495.33 168.73 C 492.40 158.38 485.27 149.33 475.86 144.12 C 463.23 137.14 447.75 135.88 434.00 140.08 M 645.27 267.46 C 636.56 278.09 628.70 290.14 626.35 303.92 C 624.56 314.69 626.69 326.64 633.99 335.05 C 645.55 348.51 666.83 351.91 682.22 343.24 C 694.61 336.49 702.82 324.35 708.89 311.97 C 715.60 297.68 718.91 281.79 718.50 266.00 C 718.49 243.29 718.51 220.57 718.49 197.86 C 695.60 222.63 666.89 241.42 645.27 267.46 Z" />
<path fill="#000000" opacity="1.00" d=" M 1328.73 122.66 C 1347.87 114.24 1369.25 110.75 1390.04 113.53 C 1411.36 116.21 1432.77 124.49 1447.87 140.22 C 1459.15 151.78 1465.51 167.85 1465.28 184.00 C 1465.38 203.50 1455.15 222.11 1440.09 234.14 C 1427.83 244.29 1412.37 248.96 1397.86 254.85 C 1383.64 260.54 1368.89 266.08 1357.03 276.06 C 1347.36 284.45 1340.25 296.91 1341.22 310.03 C 1341.72 314.95 1342.80 320.19 1345.98 324.12 C 1358.78 336.58 1373.85 347.13 1390.89 352.84 C 1406.09 358.02 1422.84 358.81 1438.30 354.27 C 1450.03 350.96 1461.00 345.11 1470.45 337.42 C 1471.42 336.55 1472.83 335.72 1472.49 334.14 C 1472.51 281.43 1472.49 228.71 1472.50 176.00 C 1472.15 160.20 1471.70 143.97 1466.00 129.02 C 1463.75 122.88 1460.16 117.35 1455.82 112.49 C 1482.02 112.49 1508.22 112.51 1534.43 112.48 C 1537.61 131.28 1531.39 149.93 1523.78 166.88 C 1520.62 174.24 1517.15 181.49 1514.47 189.04 C 1513.16 193.00 1513.22 198.46 1517.13 200.94 C 1520.01 202.82 1523.61 201.10 1525.74 198.86 C 1528.86 195.45 1529.96 190.83 1531.75 186.68 C 1538.54 170.02 1545.84 153.22 1557.12 139.04 C 1562.71 131.74 1568.90 124.58 1576.99 119.97 C 1586.59 114.26 1598.00 112.67 1609.00 112.58 C 1624.25 112.36 1639.96 117.13 1651.15 127.80 C 1665.66 141.32 1672.23 161.08 1675.09 180.22 C 1654.24 184.40 1633.34 188.31 1612.48 192.44 C 1610.30 182.04 1606.66 171.59 1599.64 163.42 C 1595.49 158.53 1589.62 154.68 1583.09 154.26 C 1577.20 153.83 1571.49 156.44 1567.08 160.18 C 1560.32 165.98 1555.57 173.69 1551.57 181.56 C 1544.17 195.79 1540.02 211.46 1537.19 227.18 C 1535.56 237.05 1534.33 247.04 1534.49 257.07 C 1534.51 276.37 1534.50 295.67 1534.50 314.97 C 1534.41 333.98 1533.88 353.35 1539.15 371.81 C 1541.55 380.40 1545.35 388.83 1551.71 395.24 C 1519.73 395.27 1487.76 395.24 1455.79 395.25 C 1467.47 383.03 1470.50 365.46 1471.91 349.25 C 1461.79 361.10 1449.86 371.50 1436.28 379.20 C 1418.08 389.73 1397.08 395.40 1376.05 395.27 C 1353.58 395.41 1331.19 388.78 1312.19 376.82 C 1287.44 361.33 1268.51 337.28 1257.95 310.16 C 1241.65 268.66 1244.32 219.95 1265.84 180.81 C 1279.80 155.37 1301.84 134.00 1328.73 122.66 M 1317.02 149.11 C 1301.65 160.75 1293.22 179.94 1292.30 198.92 C 1291.73 215.56 1294.87 232.14 1299.82 247.97 C 1306.05 267.82 1315.69 286.46 1327.50 303.56 C 1327.05 299.34 1327.22 295.07 1328.04 290.91 C 1331.00 274.75 1342.41 261.93 1354.15 251.18 C 1366.30 239.63 1379.51 228.74 1388.57 214.43 C 1398.43 198.37 1401.54 176.89 1392.19 159.90 C 1386.97 150.19 1377.48 143.20 1366.98 140.13 C 1350.17 134.76 1330.94 138.33 1317.02 149.11 Z" />
<path fill="#000000" opacity="1.00" d=" M 660.45 416.58 C 667.68 414.96 675.73 416.73 681.37 421.62 C 686.57 426.01 689.39 433.13 688.28 439.89 C 687.15 448.58 679.91 455.77 671.45 457.55 C 662.62 459.79 652.54 456.48 647.19 449.02 C 642.89 443.14 642.02 434.89 645.25 428.33 C 648.07 422.28 653.99 417.99 660.45 416.58 Z" />
<path fill="#000000" opacity="1.00" d=" M 54.94 438.87 C 72.66 424.06 95.80 415.54 118.97 416.56 C 132.69 417.37 146.29 419.52 159.94 420.97 C 171.04 422.23 182.02 419.37 192.61 416.40 C 191.24 433.72 189.66 451.02 188.18 468.33 C 178.46 469.14 168.56 469.20 158.99 467.08 C 147.18 464.63 136.42 458.89 126.13 452.80 C 113.71 445.45 100.99 436.56 86.02 436.23 C 73.75 435.43 61.78 441.85 54.51 451.54 C 45.68 463.32 43.10 478.58 43.50 492.98 C 44.17 513.06 50.37 532.65 59.49 550.43 C 68.58 567.48 79.75 583.90 94.94 596.10 C 107.55 606.33 123.80 612.09 140.07 611.71 C 152.78 611.31 165.13 607.23 176.30 601.29 C 188.31 594.80 199.15 586.30 209.01 576.90 C 208.99 553.92 208.99 530.95 209.01 507.98 C 208.89 495.50 208.20 481.49 199.36 471.75 C 214.71 471.76 230.06 471.74 245.41 471.75 C 247.71 486.37 240.69 499.92 235.05 512.88 C 233.75 515.97 231.82 520.35 234.90 523.03 C 237.88 525.28 241.17 521.63 242.08 518.90 C 247.67 504.66 253.98 490.04 265.43 479.45 C 272.43 472.83 282.63 471.31 291.90 471.83 C 300.72 472.25 309.46 475.97 315.39 482.59 C 318.82 486.30 321.23 490.77 323.31 495.33 C 318.05 501.20 313.48 507.68 309.94 514.73 C 303.54 515.93 297.16 517.25 290.75 518.41 C 289.11 510.91 286.22 502.90 279.70 498.30 C 275.36 495.13 269.05 495.65 265.03 499.10 C 258.94 504.04 255.41 511.35 252.43 518.44 C 247.16 532.29 244.96 547.22 245.25 562.01 C 245.32 575.58 245.13 589.15 245.34 602.72 C 245.91 614.55 247.14 627.55 255.39 636.79 C 236.71 636.72 218.02 636.73 199.34 636.79 C 210.74 623.73 208.85 605.16 209.00 589.07 C 200.50 601.57 190.57 613.49 177.61 621.57 C 159.36 633.18 137.26 636.79 115.96 636.77 C 97.31 636.90 78.74 631.15 63.28 620.76 C 45.71 608.97 31.98 591.70 23.95 572.15 C 15.97 552.93 13.33 531.59 16.05 510.98 C 19.51 483.27 33.25 456.66 54.94 438.87 Z" />
<path fill="#000000" opacity="1.00" d=" M 1031.46 417.54 C 1048.62 414.74 1065.94 417.91 1082.93 420.38 C 1097.82 422.55 1112.98 420.47 1127.37 416.42 C 1125.86 433.70 1124.15 450.96 1122.60 468.23 C 1107.81 468.53 1092.70 466.21 1079.36 459.57 C 1067.99 454.16 1058.19 446.13 1047.81 439.12 C 1041.59 435.10 1035.53 430.13 1028.01 428.93 C 1023.64 428.13 1018.48 429.11 1015.82 432.96 C 1013.16 436.79 1014.24 441.85 1016.14 445.77 C 1020.17 454.00 1027.24 460.18 1034.33 465.75 C 1052.10 479.27 1072.91 487.82 1092.00 499.18 C 1105.46 507.06 1118.08 516.86 1127.51 529.41 C 1138.69 543.89 1144.92 562.72 1142.01 581.02 C 1139.87 596.14 1130.82 609.67 1118.78 618.83 C 1100.51 632.78 1076.68 638.52 1053.95 636.37 C 1033.32 634.52 1012.15 627.64 997.16 612.80 C 984.31 600.13 978.70 580.85 982.33 563.24 C 985.32 548.99 994.69 536.33 1007.34 529.15 C 1018.60 536.96 1029.76 544.92 1041.06 552.68 C 1033.92 558.11 1028.13 565.46 1025.44 574.09 C 1019.97 590.94 1026.34 610.84 1040.48 621.48 C 1053.03 631.07 1071.03 631.86 1085.02 625.01 C 1095.27 619.96 1102.26 609.66 1104.47 598.59 C 1107.07 585.26 1105.22 570.74 1097.79 559.20 C 1090.73 548.06 1079.92 540.01 1068.98 532.98 C 1051.06 521.67 1030.95 513.93 1014.23 500.74 C 1005.21 493.52 997.80 484.01 993.98 473.04 C 990.02 461.77 991.12 448.70 997.61 438.58 C 1004.85 426.77 1018.07 419.80 1031.46 417.54 Z" />
<path fill="#000000" opacity="1.00" d=" M 1428.53 423.53 C 1444.02 421.19 1459.51 418.79 1475.00 416.43 C 1475.00 471.62 1475.00 526.81 1475.00 582.00 C 1475.34 595.85 1473.75 610.02 1477.49 623.56 C 1478.65 626.98 1479.64 630.78 1482.41 633.32 C 1487.66 624.50 1489.39 614.10 1489.51 603.97 C 1489.47 571.65 1489.52 539.33 1489.49 507.01 C 1489.01 497.06 1487.61 485.74 1479.60 478.81 C 1494.96 476.43 1510.33 474.18 1525.67 471.69 C 1525.86 484.79 1525.66 497.90 1525.78 511.01 C 1525.85 512.88 1525.62 514.78 1524.72 516.46 C 1513.34 539.96 1513.35 568.62 1524.66 592.15 C 1526.60 595.80 1525.40 600.05 1525.81 603.99 C 1526.23 615.43 1527.57 628.15 1535.95 636.78 C 1503.37 636.70 1470.78 636.79 1438.19 636.73 C 1436.19 621.85 1443.50 608.28 1449.15 595.09 C 1450.37 592.25 1452.02 588.07 1449.06 585.78 C 1446.62 583.79 1443.44 586.10 1442.50 588.54 C 1438.51 597.97 1434.78 607.59 1429.19 616.22 C 1423.82 624.43 1416.00 631.25 1406.58 634.32 C 1390.49 639.40 1371.33 636.92 1358.65 625.22 C 1346.28 613.89 1340.42 597.23 1338.06 581.00 C 1334.63 555.88 1339.33 529.64 1351.52 507.38 C 1357.37 496.49 1365.88 486.96 1376.37 480.35 C 1386.31 474.10 1398.28 470.94 1410.01 471.94 C 1418.68 472.68 1426.81 477.03 1432.70 483.37 C 1437.78 488.90 1441.62 495.45 1444.71 502.28 C 1445.73 504.36 1446.86 506.96 1449.37 507.56 C 1451.98 508.28 1454.13 505.41 1453.98 503.02 C 1453.59 499.93 1451.71 497.34 1450.30 494.66 C 1445.48 486.37 1441.09 477.62 1439.48 468.08 C 1437.57 459.11 1438.90 449.85 1437.16 440.86 C 1436.09 434.43 1433.80 427.72 1428.53 423.53 M 1407.16 486.31 C 1397.18 488.56 1390.39 497.27 1386.00 505.97 C 1380.42 517.22 1377.64 529.65 1375.95 542.03 C 1373.72 559.78 1374.67 578.43 1381.91 595.01 C 1385.27 602.53 1391.24 609.49 1399.47 611.66 C 1405.81 613.65 1412.75 611.79 1418.13 608.17 C 1424.97 603.50 1429.83 596.30 1432.52 588.53 C 1437.01 575.89 1438.49 562.35 1438.25 549.00 C 1438.15 539.35 1438.44 529.70 1438.11 520.06 C 1437.46 510.35 1434.53 500.36 1427.88 493.03 C 1422.76 487.40 1414.67 484.32 1407.16 486.31 Z" />
<path fill="#000000" opacity="1.00" d=" M 1496.20 417.19 C 1506.65 414.40 1519.08 419.49 1523.31 429.74 C 1526.09 436.45 1524.94 444.64 1520.33 450.29 C 1513.86 458.42 1501.69 460.87 1492.33 456.64 C 1484.73 453.36 1479.26 445.37 1479.70 437.00 C 1479.60 427.55 1487.19 419.23 1496.20 417.19 Z" />
<path fill="#000000" opacity="1.00" d=" M 588.29 434.01 C 594.44 433.99 600.60 433.99 606.75 434.01 C 606.76 446.59 606.70 459.18 606.79 471.76 C 650.73 471.73 694.67 471.77 738.61 471.74 C 730.08 480.08 730.21 493.13 732.99 503.92 C 743.88 544.89 754.96 585.81 765.93 626.76 C 778.28 619.74 786.81 606.98 789.02 593.00 C 792.62 570.53 786.29 548.21 782.65 526.18 C 779.30 508.08 779.06 488.37 787.98 471.74 C 802.80 471.77 817.62 471.71 832.44 471.78 C 827.46 481.72 823.24 492.11 820.67 502.96 C 820.19 504.92 819.56 506.86 818.49 508.58 C 807.64 526.21 803.70 547.80 806.89 568.19 C 807.32 571.81 808.63 575.28 808.93 578.92 C 803.24 602.10 789.87 624.62 768.63 636.58 C 756.62 636.92 744.57 636.77 732.55 636.64 C 722.20 597.72 711.47 558.91 701.00 520.02 C 697.37 506.89 694.38 493.22 686.85 481.64 C 686.61 522.08 686.82 562.52 686.75 602.96 C 687.03 614.58 688.46 627.36 696.74 636.27 C 677.99 636.24 659.25 636.24 640.50 636.27 C 648.72 626.99 650.28 613.97 650.51 602.06 C 650.46 570.38 650.55 538.69 650.47 507.01 C 649.95 497.51 648.86 486.96 642.00 479.72 C 633.17 480.09 623.38 478.32 615.55 483.48 C 608.87 487.89 606.85 496.42 606.75 503.96 C 606.74 533.63 606.76 563.30 606.74 592.97 C 606.83 600.30 608.46 608.02 613.24 613.79 C 616.75 618.13 622.57 620.85 628.17 619.74 C 632.04 619.17 635.42 617.08 638.63 614.97 C 640.19 616.52 641.72 618.11 643.20 619.75 C 637.81 626.66 630.97 632.98 622.27 635.23 C 611.19 637.96 598.67 637.53 588.86 631.17 C 580.45 626.00 574.82 617.15 572.31 607.74 C 570.09 600.03 570.02 591.94 569.99 583.98 C 570.02 565.00 569.98 546.01 570.01 527.03 C 570.22 517.94 570.43 508.30 575.14 500.22 C 578.68 494.00 585.14 489.99 591.94 488.19 C 594.55 487.52 597.95 486.25 598.06 483.05 C 597.27 480.48 594.34 479.68 591.95 479.77 C 578.47 479.72 564.99 479.76 551.51 479.76 C 551.49 477.08 551.49 474.41 551.50 471.75 C 559.97 472.15 569.22 471.73 576.10 466.11 C 585.71 458.59 588.41 445.61 588.29 434.01 Z" />
<path fill="#000000" opacity="1.00" d=" M 1161.08 434.05 C 1167.22 433.96 1173.36 434.00 1179.51 434.02 C 1179.49 446.60 1179.49 459.18 1179.51 471.76 C 1203.83 471.73 1228.16 471.76 1252.48 471.74 C 1252.54 511.15 1252.47 550.56 1252.51 589.96 C 1252.80 597.04 1254.91 604.79 1260.80 609.27 C 1265.60 613.09 1272.53 612.64 1277.73 609.90 C 1285.17 606.06 1290.13 598.75 1293.15 591.14 C 1296.13 583.36 1297.97 575.19 1299.23 566.97 C 1301.16 554.40 1300.31 541.65 1300.50 528.98 C 1300.33 517.65 1301.12 506.19 1299.06 494.97 C 1297.95 488.85 1295.37 482.75 1290.35 478.83 C 1305.81 476.44 1321.28 474.09 1336.75 471.72 C 1336.75 486.47 1336.73 501.21 1336.76 515.96 C 1336.70 518.69 1337.05 521.53 1336.14 524.18 C 1327.93 547.24 1326.37 573.03 1333.64 596.55 C 1334.68 600.38 1336.94 603.92 1336.93 608.00 C 1337.46 618.20 1339.37 629.17 1346.75 636.80 C 1331.28 636.68 1315.81 636.78 1300.35 636.75 C 1298.15 621.37 1306.16 607.44 1311.83 593.76 C 1313.17 590.96 1313.59 586.27 1309.92 585.11 C 1306.64 584.45 1304.52 587.77 1303.49 590.39 C 1298.99 601.65 1294.37 613.11 1286.80 622.72 C 1281.82 629.00 1274.93 633.96 1267.04 635.74 C 1253.06 639.13 1237.09 634.55 1228.14 623.01 C 1220.44 613.48 1216.86 601.17 1216.27 589.08 C 1216.18 562.38 1216.34 535.68 1216.19 508.98 C 1215.71 498.83 1215.13 487.09 1207.14 479.70 C 1199.69 479.59 1191.25 479.96 1185.71 485.66 C 1179.55 492.10 1179.37 501.63 1179.49 510.01 C 1179.50 536.34 1179.51 562.68 1179.49 589.02 C 1179.33 596.53 1180.10 604.42 1184.06 610.99 C 1186.91 615.95 1192.11 619.82 1197.97 619.99 C 1202.95 620.12 1207.45 617.67 1211.48 614.98 C 1212.96 616.55 1214.47 618.11 1216.00 619.66 C 1210.75 626.64 1203.87 632.89 1195.24 635.18 C 1183.91 638.01 1171.04 637.55 1161.13 630.80 C 1150.56 623.91 1144.85 611.55 1143.54 599.30 C 1150.16 587.99 1151.94 574.26 1149.75 561.44 C 1148.69 554.36 1145.86 547.77 1143.12 541.24 C 1143.23 528.86 1141.60 515.93 1146.07 504.07 C 1148.90 496.38 1155.79 490.74 1163.58 488.55 C 1166.37 487.63 1170.54 486.83 1170.79 483.21 C 1170.46 480.51 1167.30 479.71 1165.03 479.77 C 1151.52 479.71 1138.01 479.76 1124.51 479.76 C 1124.49 477.08 1124.49 474.41 1124.50 471.75 C 1132.73 472.11 1141.67 471.75 1148.46 466.46 C 1158.42 459.07 1161.22 445.79 1161.08 434.05 Z" />
<path fill="#000000" opacity="1.00" d=" M 332.70 493.67 C 345.83 480.27 364.25 471.96 383.07 471.73 C 396.54 471.83 410.41 475.36 421.17 483.74 C 430.16 490.57 436.08 501.61 435.80 513.01 C 436.26 527.19 427.10 540.30 414.96 546.98 C 401.47 554.20 385.74 557.08 373.48 566.58 C 365.40 572.86 360.31 584.78 365.66 594.36 C 375.99 605.12 389.88 613.36 405.02 614.40 C 415.38 615.11 425.67 611.74 434.34 606.21 C 431.55 594.07 434.52 580.89 442.06 571.01 C 449.48 561.34 459.66 554.32 469.84 547.84 C 487.32 536.81 505.74 527.05 521.65 513.73 C 527.89 508.19 534.09 501.79 536.41 493.54 C 537.49 490.09 536.58 485.66 532.96 484.14 C 527.15 481.86 520.79 484.13 515.33 486.39 C 503.47 491.85 492.84 499.59 482.53 507.50 C 475.02 513.41 467.67 519.56 460.96 526.37 C 454.10 514.30 447.45 502.11 440.65 490.00 C 459.27 479.18 480.53 473.20 502.00 472.09 C 513.92 471.51 526.37 470.95 537.65 475.54 C 545.95 478.83 552.75 485.56 556.24 493.77 C 560.28 502.93 561.07 513.11 561.26 523.00 C 561.25 543.34 561.25 563.68 561.25 584.02 C 561.36 596.34 560.61 608.85 563.41 620.96 C 564.68 626.81 567.33 632.36 571.41 636.79 C 555.91 636.70 540.42 636.76 524.94 636.76 C 522.87 621.51 530.57 607.69 536.26 594.16 C 537.65 591.22 538.50 586.62 534.94 584.88 C 531.91 584.49 529.88 587.29 528.75 589.70 C 522.28 602.91 516.44 617.15 505.02 626.97 C 494.59 635.96 479.83 637.88 466.58 636.23 C 453.44 634.53 441.93 625.38 436.69 613.30 C 426.52 624.17 413.16 632.19 398.53 635.23 C 384.10 638.33 368.70 636.77 355.23 630.69 C 338.70 623.33 325.40 609.57 317.54 593.37 C 301.74 561.24 307.29 519.34 332.70 493.67 M 344.59 497.60 C 337.30 505.85 334.19 517.22 335.04 528.10 C 336.31 547.70 344.04 566.51 355.14 582.56 C 354.86 574.40 358.13 566.54 363.40 560.41 C 371.94 550.30 383.43 542.87 390.72 531.67 C 396.10 523.11 398.34 511.98 394.50 502.37 C 391.76 495.21 385.35 489.76 377.99 487.79 C 366.19 484.11 352.64 488.33 344.59 497.60 M 475.72 571.68 C 471.34 579.16 469.18 588.70 472.86 596.90 C 476.77 606.01 487.71 610.45 497.13 608.69 C 503.67 607.56 509.17 603.23 513.20 598.13 C 520.89 588.15 524.96 575.56 525.01 563.00 C 525.00 549.22 524.98 535.45 525.01 521.68 C 509.19 538.92 487.92 551.22 475.72 571.68 Z" />
<path fill="#000000" opacity="1.00" d=" M 861.40 477.54 C 879.09 469.62 900.21 469.83 917.66 478.33 C 925.52 482.26 932.58 488.24 936.78 496.06 C 941.41 504.87 942.32 515.61 938.98 525.01 C 935.40 535.36 927.17 543.69 917.39 548.40 C 905.51 553.93 892.59 557.31 881.47 564.43 C 874.24 569.12 868.49 577.05 868.49 585.93 C 868.76 589.43 869.35 593.40 872.10 595.89 C 881.95 605.27 894.30 612.73 908.04 614.23 C 919.67 615.64 931.34 611.71 940.92 605.27 C 942.20 606.83 943.49 608.39 944.78 609.97 C 936.09 620.25 924.82 628.43 912.07 632.86 C 896.32 638.41 878.57 638.07 863.07 631.85 C 848.56 626.12 836.20 615.47 827.75 602.41 C 809.75 574.90 809.09 537.19 826.00 509.02 C 834.21 495.25 846.53 483.74 861.40 477.54 M 849.16 498.19 C 842.28 506.38 839.30 517.40 840.09 527.98 C 841.32 547.86 849.38 566.75 860.45 583.10 C 859.42 573.51 864.39 564.51 870.79 557.76 C 878.62 549.61 887.78 542.69 894.53 533.53 C 901.17 524.35 903.88 511.60 899.02 501.03 C 896.09 494.37 889.84 489.62 882.92 487.74 C 870.88 484.06 857.12 488.56 849.16 498.19 Z" />
<path fill="#000000" opacity="1.00" d=" M 1587.54 472.81 C 1604.11 469.82 1621.67 473.24 1636.01 482.02 C 1649.76 490.33 1660.62 503.09 1667.19 517.71 C 1676.84 538.80 1677.54 563.71 1669.51 585.43 C 1663.58 601.52 1652.63 615.83 1638.22 625.22 C 1624.31 634.41 1607.08 638.40 1590.55 636.21 C 1572.14 633.90 1555.06 623.83 1543.43 609.48 C 1521.91 583.62 1518.22 545.00 1533.19 515.07 C 1543.60 493.73 1563.88 476.83 1587.54 472.81 M 1572.48 490.66 C 1566.16 491.71 1560.27 495.37 1556.72 500.73 C 1552.63 506.67 1550.99 513.95 1550.57 521.05 C 1550.01 531.76 1552.07 542.46 1555.47 552.59 C 1561.31 570.21 1571.49 586.35 1584.77 599.31 C 1594.04 608.02 1605.07 615.83 1617.89 617.89 C 1626.20 619.39 1635.34 616.48 1640.80 609.93 C 1647.01 602.50 1648.71 592.44 1648.67 583.03 C 1648.11 564.32 1641.28 546.25 1631.40 530.53 C 1623.24 517.78 1612.86 506.17 1600.00 498.03 C 1591.83 493.05 1582.20 489.15 1572.48 490.66 Z" />
</g>
</svg>
